<?xml version="1.0" encoding="utf-8"?>
<!-- Generator: Adobe Illustrator 25.2.0, SVG Export Plug-In . SVG Version: 6.00 Build 0)  -->
<svg version="1.1" xmlns="http://www.w3.org/2000/svg" xmlns:xlink="http://www.w3.org/1999/xlink" x="0px" y="0px"
	 viewBox="0 0 841.89 595.28" style="enable-background:new 0 0 841.89 595.28;" xml:space="preserve">
<style type="text/css">
	.st0{fill:#1C75BC;stroke:#000000;stroke-miterlimit:10;}
	.st1{display:none;}
	.st2{display:inline;}
	.st3{fill:none;stroke:#F1F2F2;stroke-width:2;stroke-miterlimit:10;}
	.st4{fill:none;stroke:#FFFFFF;stroke-width:2;stroke-miterlimit:10;}
	.st5{display:inline;fill:none;stroke:#F1F2F2;stroke-width:2;stroke-miterlimit:10;}
	.st6{display:inline;fill:#F1F2F2;stroke:#F1F2F2;stroke-miterlimit:10;}
	.st7{font-family:'MyriadPro-Regular';}
	.st8{font-size:32px;}
	.st9{display:inline;fill:#F1F2F2;stroke:#F1F2F2;stroke-width:2;stroke-miterlimit:10;}
	.st10{display:inline;fill:none;stroke:#FFFFFF;stroke-width:2;stroke-miterlimit:10;}
	.st11{display:inline;fill:#FFFFFF;}
	.st12{font-size:14px;}
	.st13{display:inline;fill:#FFFFFF;stroke:#FFFFFF;stroke-width:2;stroke-miterlimit:10;}
	.st14{font-size:26.5132px;}
	.st15{font-size:21.1023px;}
	.st16{fill:#F1F2F2;stroke:#F1F2F2;stroke-miterlimit:10;}
	.st17{font-size:21.7808px;}
	.st18{fill:#F1F2F2;stroke:#F1F2F2;stroke-width:2;stroke-miterlimit:10;}
	.st19{font-size:17.3357px;}
</style>
<g id="Layer_1">
	<rect x="-5.62" y="-4.51" class="st0" width="853.38" height="605.41"/>
</g>
<g id="Table" class="st1">
	<g class="st2">
		<g>
			<g>
				<g>
					<rect x="84.92" y="51.57" class="st3" width="137.44" height="55.22"/>
					<rect x="222.35" y="51.57" class="st3" width="137.44" height="55.22"/>
					<rect x="359.79" y="51.57" class="st3" width="137.44" height="55.22"/>
					<rect x="497.23" y="51.57" class="st3" width="137.44" height="55.22"/>
					<rect x="634.66" y="51.57" class="st3" width="137.44" height="55.22"/>
				</g>
				<g>
					<rect x="84.92" y="106.79" class="st3" width="137.44" height="55.22"/>
					<rect x="222.35" y="106.79" class="st3" width="137.44" height="55.22"/>
					<rect x="359.79" y="106.79" class="st3" width="137.44" height="55.22"/>
					<rect x="497.23" y="106.79" class="st3" width="137.44" height="55.22"/>
					<rect x="634.66" y="106.79" class="st3" width="137.44" height="55.22"/>
				</g>
			</g>
			<g>
				<g>
					<rect x="84.92" y="160.34" class="st3" width="137.44" height="55.22"/>
					<rect x="222.35" y="160.34" class="st3" width="137.44" height="55.22"/>
					<rect x="359.79" y="160.34" class="st3" width="137.44" height="55.22"/>
					<rect x="497.23" y="160.34" class="st3" width="137.44" height="55.22"/>
					<rect x="634.66" y="160.34" class="st3" width="137.44" height="55.22"/>
				</g>
				<g>
					<rect x="84.92" y="215.56" class="st3" width="137.44" height="55.22"/>
					<rect x="222.35" y="215.56" class="st3" width="137.44" height="55.22"/>
					<rect x="359.79" y="215.56" class="st3" width="137.44" height="55.22"/>
					<rect x="497.23" y="215.56" class="st3" width="137.44" height="55.22"/>
					<rect x="634.66" y="215.56" class="st3" width="137.44" height="55.22"/>
				</g>
			</g>
		</g>
		<g>
			<g>
				<rect x="84.92" y="270.79" class="st3" width="137.44" height="55.22"/>
				<rect x="222.35" y="270.79" class="st3" width="137.44" height="55.22"/>
				<rect x="359.79" y="270.79" class="st3" width="137.44" height="55.22"/>
				<rect x="497.23" y="270.79" class="st3" width="137.44" height="55.22"/>
				<rect x="634.66" y="270.79" class="st3" width="137.44" height="55.22"/>
			</g>
			<g>
				<rect x="84.92" y="326.01" class="st3" width="137.44" height="55.22"/>
				<rect x="222.35" y="326.01" class="st3" width="137.44" height="55.22"/>
				<rect x="359.79" y="326.01" class="st3" width="137.44" height="55.22"/>
				<rect x="497.23" y="326.01" class="st3" width="137.44" height="55.22"/>
				<rect x="634.66" y="326.01" class="st3" width="137.44" height="55.22"/>
			</g>
		</g>
		<g>
			<rect x="84.92" y="379.56" class="st3" width="137.44" height="55.22"/>
			<rect x="222.35" y="379.56" class="st3" width="137.44" height="55.22"/>
			<rect x="359.79" y="379.56" class="st3" width="137.44" height="55.22"/>
			<rect x="497.23" y="379.56" class="st3" width="137.44" height="55.22"/>
			<rect x="634.66" y="379.56" class="st3" width="137.44" height="55.22"/>
		</g>
		<rect x="84.92" y="434.78" class="st3" width="137.44" height="55.22"/>
		<rect x="222.35" y="434.78" class="st3" width="137.44" height="55.22"/>
		<rect x="359.79" y="434.78" class="st3" width="137.44" height="55.22"/>
		<rect x="497.23" y="434.78" class="st3" width="137.44" height="55.22"/>
		<rect x="634.66" y="434.78" class="st3" width="137.44" height="55.22"/>
		<g>
			<rect x="84.92" y="490" class="st3" width="137.44" height="55.22"/>
			<rect x="222.35" y="490" class="st3" width="137.44" height="55.22"/>
			<rect x="359.79" y="490" class="st3" width="137.44" height="55.22"/>
			<rect x="497.23" y="490" class="st3" width="137.44" height="55.22"/>
			<rect x="634.66" y="490" class="st3" width="137.44" height="55.22"/>
		</g>
		<g>
			<g>
				<g>
					<path class="st4" d="M138.83,64.56c3.69,0,7,3.89,7,9.81c0,6.39-3.24,10.37-7.22,10.37c-3.93,0-7.09-4.19-7.09-9.93
						C131.52,69.5,134.27,64.56,138.83,64.56z M138.39,65.66c-2.42,0-4.62,2.79-4.62,8.35c0,5.56,2.2,9.6,5.27,9.6
						c2.42,0,4.58-2.68,4.58-8.41C143.62,68.96,141.22,65.66,138.39,65.66z M139.84,82.81c2.27,2.38,4.69,4.52,6.68,5.53l-0.15,0.71
						c-1.04,0-2.27-0.15-2.92-0.39c-1.49-0.56-4.04-3.12-5.79-4.82L139.84,82.81z"/>
				</g>
			</g>
			<g>
				<g>
					<path class="st4" d="M158.58,99.33c-0.37,0.27-0.71,0.39-0.93,0.39c-1.38,0-2.12-1.16-2.12-3.54v-8.65h-1.49l-0.09-0.36
						l0.58-0.86h0.99v-2.5c0.41-0.59,1.04-1.37,1.45-1.96l0.32,0.06c-0.04,1.25-0.06,2.97-0.06,4.4h2.46
						c0.19,0.3,0.13,0.95-0.13,1.22h-2.33v7.61c0,2.41,0.69,2.85,1.25,2.85c0.52,0,1.02-0.27,1.32-0.48l0.19,0.77L158.58,99.33z"/>
				</g>
			</g>
		</g>
		<g>
			<g>
				<path class="st4" d="M426.74,71.91c-0.23-1.96-0.6-3.89-1.86-3.89c-1.05,0-1.41,1.69-1.41,3.24c0,2.05,0.59,3.09,1.7,4.37
					c1.61,1.84,2.31,3.21,2.31,6.03c0,3.12-1.22,5.5-2.95,5.5c-0.8,0-1.5-0.51-2.05-0.98c-0.11-0.83-0.27-2.85-0.36-4.46l0.42-0.24
					c0.27,1.99,0.86,4.58,2.25,4.58c0.97,0,1.56-1.49,1.56-3.42c0-2.29-0.55-3.21-1.73-4.64c-1.41-1.69-2.2-3.12-2.2-5.89
					c0-2.65,0.99-5.14,2.76-5.14c0.75,0,1.49,0.45,1.77,0.56c0.05,1.07,0.11,2.26,0.21,4.19L426.74,71.91z"/>
			</g>
		</g>
		<g>
			<g>
				<path class="st4" d="M151.25,126.41c3.24,0,4.45,4.99,4.45,9.6c0,4.34-1.21,9.63-4.45,9.63c-3.31,0-4.52-4.9-4.52-9.6
					C146.74,131.7,147.97,126.41,151.25,126.41z M151.25,127.45c-2.01,0-2.51,4.37-2.51,8.53c0,4.16,0.6,8.62,2.51,8.62
					c1.94,0,2.46-4.43,2.46-8.59C153.72,131.82,153.18,127.45,151.25,127.45z"/>
			</g>
		</g>
		<g>
			<g>
				<path class="st4" d="M288.78,407.16c3.24,0,4.45,4.99,4.45,9.6c0,4.34-1.21,9.63-4.45,9.63c-3.31,0-4.52-4.9-4.52-9.6
					C284.26,412.45,285.49,407.16,288.78,407.16z M288.78,408.2c-2.01,0-2.51,4.37-2.51,8.53s0.6,8.62,2.51,8.62
					c1.94,0,2.46-4.43,2.46-8.59C291.24,412.57,290.7,408.2,288.78,408.2z"/>
			</g>
		</g>
		<g>
			<g>
				<path class="st4" d="M426,452.79c3.24,0,4.45,4.99,4.45,9.6c0,4.34-1.21,9.63-4.45,9.63c-3.31,0-4.52-4.9-4.52-9.6
					C421.48,458.08,422.71,452.79,426,452.79z M426,453.83c-2.01,0-2.51,4.37-2.51,8.53s0.61,8.62,2.51,8.62
					c1.95,0,2.46-4.43,2.46-8.59C428.46,458.2,427.92,453.83,426,453.83z"/>
			</g>
		</g>
		<g>
			<g>
				<path class="st4" d="M426,344.01c3.24,0,4.45,4.99,4.45,9.6c0,4.34-1.21,9.63-4.45,9.63c-3.31,0-4.52-4.9-4.52-9.6
					C421.48,349.3,422.71,344.01,426,344.01z M426,345.05c-2.01,0-2.51,4.37-2.51,8.53s0.61,8.62,2.51,8.62
					c1.95,0,2.46-4.43,2.46-8.59C428.46,349.42,427.92,345.05,426,345.05z"/>
			</g>
		</g>
		<g>
			<g>
				<path class="st4" d="M288.78,345.62c3.24,0,4.45,4.99,4.45,9.6c0,4.34-1.21,9.63-4.45,9.63c-3.31,0-4.52-4.9-4.52-9.6
					C284.26,350.92,285.49,345.62,288.78,345.62z M288.78,346.66c-2.01,0-2.51,4.37-2.51,8.53s0.6,8.62,2.51,8.62
					c1.94,0,2.46-4.43,2.46-8.59C291.24,351.03,290.7,346.66,288.78,346.66z"/>
			</g>
		</g>
		<g>
			<g>
				<path class="st4" d="M426,231.83c3.24,0,4.45,4.99,4.45,9.6c0,4.34-1.21,9.63-4.45,9.63c-3.31,0-4.52-4.9-4.52-9.6
					C421.48,237.12,422.71,231.83,426,231.83z M426,232.87c-2.01,0-2.51,4.37-2.51,8.53c0,4.16,0.61,8.62,2.51,8.62
					c1.94,0,2.46-4.43,2.46-8.59C428.46,237.24,427.92,232.87,426,232.87z"/>
			</g>
		</g>
		<g>
			<g>
				<path class="st4" d="M288.78,126.41c3.24,0,4.45,4.99,4.45,9.6c0,4.34-1.21,9.63-4.45,9.63c-3.31,0-4.52-4.9-4.52-9.6
					C284.26,131.7,285.49,126.41,288.78,126.41z M288.78,127.45c-2.01,0-2.51,4.37-2.51,8.53c0,4.16,0.6,8.62,2.51,8.62
					c1.94,0,2.46-4.43,2.46-8.59C291.24,131.82,290.7,127.45,288.78,127.45z"/>
			</g>
		</g>
		<g>
			<g>
				<path class="st4" d="M426,126.41c3.24,0,4.45,4.99,4.45,9.6c0,4.34-1.21,9.63-4.45,9.63c-3.31,0-4.52-4.9-4.52-9.6
					C421.48,131.7,422.71,126.41,426,126.41z M426,127.45c-2.01,0-2.51,4.37-2.51,8.53c0,4.16,0.61,8.62,2.51,8.62
					c1.95,0,2.46-4.43,2.46-8.59C428.46,131.82,427.92,127.45,426,127.45z"/>
			</g>
		</g>
		<g>
			<g>
				<path class="st4" d="M151.25,178.37c3.24,0,4.45,4.99,4.45,9.6c0,4.34-1.21,9.63-4.45,9.63c-3.31,0-4.52-4.9-4.52-9.6
					C146.74,183.67,147.97,178.37,151.25,178.37z M151.25,179.41c-2.01,0-2.51,4.37-2.51,8.53c0,4.16,0.6,8.62,2.51,8.62
					c1.94,0,2.46-4.43,2.46-8.59C153.72,183.78,153.18,179.41,151.25,179.41z"/>
			</g>
		</g>
		<g>
			<g>
				<path class="st4" d="M288.78,178.37c3.24,0,4.45,4.99,4.45,9.6c0,4.34-1.21,9.63-4.45,9.63c-3.31,0-4.52-4.9-4.52-9.6
					C284.26,183.67,285.49,178.37,288.78,178.37z M288.78,179.41c-2.01,0-2.51,4.37-2.51,8.53c0,4.16,0.6,8.62,2.51,8.62
					c1.94,0,2.46-4.43,2.46-8.59C291.24,183.78,290.7,179.41,288.78,179.41z"/>
			</g>
		</g>
		<g>
			<g>
				<path class="st4" d="M151.26,231.83c3.24,0,4.45,4.99,4.45,9.6c0,4.34-1.21,9.63-4.45,9.63c-3.31,0-4.52-4.9-4.52-9.6
					C146.74,237.12,147.97,231.83,151.26,231.83z M151.26,232.87c-2.01,0-2.51,4.37-2.51,8.53c0,4.16,0.6,8.62,2.51,8.62
					c1.94,0,2.46-4.43,2.46-8.59C153.72,237.24,153.18,232.87,151.26,232.87z"/>
			</g>
		</g>
		<g>
			<g>
				<path class="st4" d="M151.26,287.05c3.24,0,4.45,4.99,4.45,9.6c0,4.34-1.21,9.63-4.45,9.63c-3.31,0-4.52-4.9-4.52-9.6
					C146.74,292.34,147.97,287.05,151.26,287.05z M151.26,288.09c-2.01,0-2.51,4.37-2.51,8.53s0.6,8.62,2.51,8.62
					c1.94,0,2.46-4.43,2.46-8.59C153.72,292.46,153.18,288.09,151.26,288.09z"/>
			</g>
		</g>
		<g>
			<g>
				<path class="st4" d="M147.95,525.98v-0.83c2.4-0.21,2.53-0.36,2.53-2.59v-11.41c0-1.52-0.15-1.58-1.1-1.69l-1.06-0.15v-0.74
					c1.43-0.33,2.85-0.8,3.95-1.46v15.46c0,2.26,0.13,2.38,2.55,2.59v0.83H147.95z"/>
			</g>
		</g>
		<g>
			<g>
				<path class="st4" d="M147.95,474.1v-0.83c2.4-0.21,2.53-0.36,2.53-2.59v-11.41c0-1.52-0.15-1.58-1.1-1.69l-1.06-0.15v-0.74
					c1.43-0.33,2.85-0.8,3.95-1.46v15.46c0,2.26,0.13,2.38,2.55,2.59v0.83H147.95z"/>
			</g>
		</g>
		<g>
			<g>
				<path class="st4" d="M285.47,529.4v-0.83c2.4-0.21,2.53-0.36,2.53-2.59v-11.41c0-1.52-0.15-1.58-1.1-1.69l-1.06-0.15v-0.74
					c1.43-0.33,2.85-0.8,3.95-1.46v15.46c0,2.26,0.13,2.38,2.55,2.59v0.83H285.47z"/>
			</g>
		</g>
		<g>
			<g>
				<path class="st4" d="M422.69,525.35v-0.83c2.4-0.21,2.53-0.36,2.53-2.59v-11.41c0-1.52-0.15-1.58-1.1-1.69l-1.06-0.15v-0.74
					c1.43-0.33,2.85-0.8,3.95-1.46v15.46c0,2.26,0.13,2.38,2.55,2.59v0.83H422.69z"/>
			</g>
		</g>
		<g>
			<g>
				<path class="st4" d="M147.95,419.79v-0.83c2.4-0.21,2.53-0.36,2.53-2.59v-11.41c0-1.52-0.15-1.58-1.1-1.69l-1.06-0.15v-0.74
					c1.43-0.33,2.85-0.8,3.95-1.46v15.46c0,2.26,0.13,2.38,2.55,2.59v0.83H147.95z"/>
			</g>
		</g>
		<g>
			<g>
				<path class="st4" d="M285.47,474.1v-0.83c2.4-0.21,2.53-0.36,2.53-2.59v-11.41c0-1.52-0.15-1.58-1.1-1.69l-1.06-0.15v-0.74
					c1.43-0.33,2.85-0.8,3.95-1.46v15.46c0,2.26,0.13,2.38,2.55,2.59v0.83H285.47z"/>
			</g>
		</g>
		<g>
			<g>
				<path class="st4" d="M422.69,419.79v-0.83c2.4-0.21,2.53-0.36,2.53-2.59v-11.41c0-1.52-0.15-1.58-1.1-1.69l-1.06-0.15v-0.74
					c1.43-0.33,2.85-0.8,3.95-1.46v15.46c0,2.26,0.13,2.38,2.55,2.59v0.83H422.69z"/>
			</g>
		</g>
		<g>
			<g>
				<path class="st4" d="M147.95,362.82v-0.83c2.4-0.21,2.53-0.36,2.53-2.59v-11.41c0-1.52-0.15-1.58-1.1-1.69l-1.06-0.15v-0.74
					c1.43-0.33,2.85-0.8,3.95-1.46v15.46c0,2.26,0.13,2.38,2.55,2.59v0.83H147.95z"/>
			</g>
		</g>
		<g>
			<g>
				<path class="st4" d="M285.47,305.93v-0.83c2.4-0.21,2.53-0.36,2.53-2.59v-11.41c0-1.52-0.15-1.58-1.1-1.69l-1.06-0.15v-0.74
					c1.43-0.33,2.85-0.8,3.95-1.46v15.46c0,2.26,0.13,2.38,2.55,2.59v0.83H285.47z"/>
			</g>
		</g>
		<g>
			<g>
				<path class="st4" d="M422.69,309.7v-0.83c2.4-0.21,2.53-0.36,2.53-2.59v-11.41c0-1.52-0.15-1.58-1.1-1.69l-1.06-0.15v-0.74
					c1.43-0.33,2.85-0.8,3.95-1.46v15.46c0,2.26,0.13,2.38,2.55,2.59v0.83H422.69z"/>
			</g>
		</g>
		<g>
			<g>
				<path class="st4" d="M285.47,251.06v-0.83c2.4-0.21,2.53-0.36,2.53-2.59v-11.41c0-1.52-0.15-1.58-1.1-1.69l-1.06-0.15v-0.74
					c1.43-0.33,2.85-0.8,3.95-1.46v15.46c0,2.26,0.13,2.38,2.55,2.59v0.83H285.47z"/>
			</g>
		</g>
		<g>
			<g>
				<path class="st4" d="M422.69,197.25v-0.83c2.4-0.21,2.53-0.36,2.53-2.59v-11.41c0-1.52-0.15-1.58-1.1-1.69l-1.06-0.15v-0.74
					c1.43-0.33,2.85-0.8,3.95-1.46v15.46c0,2.26,0.13,2.38,2.55,2.59v0.83H422.69z"/>
			</g>
		</g>
		<g>
			<g>
				<path class="st4" d="M298.04,86.81c-0.28,0-0.52-0.03-0.8-0.06c-1.58-0.15-2.42-0.71-3.37-2.56c-0.8-1.52-1.58-3.39-2.27-4.9
					c-0.43-0.95-0.71-1.13-1.81-1.13h-0.76v4.67c0,2.53,0.24,2.67,1.97,2.91v0.83h-5.77v-0.83c1.79-0.27,1.94-0.39,1.94-2.91V70.97
					c0-2.53-0.24-2.62-1.94-2.88v-0.83h5.51c1.58,0,2.64,0.27,3.46,1.01c0.89,0.77,1.47,2.11,1.47,3.92c0,2.56-1.19,4.16-2.79,5.11
					c0.39,0.92,1.32,2.91,1.97,4.25c0.8,1.58,1.21,2.32,1.71,3.06c0.58,0.86,1.08,1.19,1.58,1.37L298.04,86.81z M290.06,77.15
					c1.12,0,1.84-0.24,2.38-0.86c0.84-0.86,1.19-2.05,1.19-3.66c0-3.18-1.53-4.34-3.2-4.34c-0.63,0-0.99,0.12-1.15,0.3
					c-0.19,0.21-0.26,0.51-0.26,1.28v7.28H290.06z"/>
			</g>
		</g>
		<g>
			<g>
				<g>
					<path class="st4" d="M549.16,68.39c2.88,0,5.45,3.03,5.45,7.64c0,4.98-2.52,8.08-5.62,8.08c-3.06,0-5.52-3.26-5.52-7.73
						C543.48,72.24,545.61,68.39,549.16,68.39z M548.82,69.25c-1.88,0-3.6,2.18-3.6,6.5s1.71,7.48,4.1,7.48
						c1.88,0,3.57-2.08,3.57-6.55C552.89,71.82,551.03,69.25,548.82,69.25z M549.95,82.61c1.77,1.85,3.65,3.52,5.2,4.31l-0.12,0.56
						c-0.81,0-1.77-0.12-2.27-0.3c-1.16-0.44-3.14-2.43-4.51-3.75L549.95,82.61z"/>
				</g>
			</g>
			<g>
				<g>
					<path class="st4" d="M564.55,89.64c-0.29,0.14-0.55,0.21-0.72,0.21c-1.08,0-1.65-0.63-1.65-1.91v-4.68h-1.16l-0.07-0.19
						l0.45-0.47h0.77v-1.35c0.32-0.32,0.81-0.74,1.13-1.06l0.25,0.03c-0.03,0.67-0.05,1.61-0.05,2.38h1.92
						c0.15,0.16,0.1,0.51-0.1,0.66h-1.82v4.11c0,1.3,0.54,1.54,0.97,1.54c0.4,0,0.79-0.14,1.03-0.26l0.15,0.42L564.55,89.64z"/>
					<path class="st4" d="M571.21,85.98v3.68h-1.01v-3.68h-3.55v-0.88h3.55v-3.34h1.01v3.34h3.53v0.88H571.21z"/>
					<path class="st4" d="M577.12,89.66v-0.45c1.87-0.11,1.97-0.19,1.97-1.4v-6.17c0-0.82-0.12-0.85-0.86-0.92l-0.82-0.08v-0.4
						c1.11-0.18,2.22-0.43,3.08-0.79v8.35c0,1.22,0.1,1.29,1.98,1.4v0.45H577.12z"/>
				</g>
			</g>
		</g>
		<g>
			<g>
				<g>
					<g>
						<path class="st4" d="M691.59,75.65c2.88,0,5.45,3.03,5.45,7.64c0,4.98-2.52,8.08-5.62,8.08c-3.06,0-5.52-3.26-5.52-7.73
							C685.9,79.5,688.04,75.65,691.59,75.65z M691.25,76.51c-1.88,0-3.6,2.18-3.6,6.5s1.71,7.48,4.1,7.48
							c1.88,0,3.57-2.08,3.57-6.55C695.32,79.08,693.45,76.51,691.25,76.51z M692.38,89.87c1.77,1.85,3.65,3.52,5.2,4.31l-0.12,0.56
							c-0.81,0-1.77-0.12-2.27-0.3c-1.16-0.44-3.14-2.43-4.51-3.75L692.38,89.87z"/>
					</g>
				</g>
				<g>
					<g>
						<path class="st4" d="M706.98,96.9c-0.29,0.14-0.55,0.21-0.72,0.21c-1.08,0-1.65-0.63-1.65-1.91v-4.68h-1.16l-0.07-0.19
							l0.45-0.47h0.77v-1.35c0.32-0.32,0.81-0.74,1.13-1.06l0.25,0.03c-0.03,0.67-0.05,1.61-0.05,2.38h1.92
							c0.15,0.16,0.1,0.51-0.1,0.66h-1.82v4.11c0,1.3,0.54,1.54,0.97,1.54c0.4,0,0.79-0.14,1.03-0.26l0.15,0.42L706.98,96.9z"/>
						<path class="st4" d="M713.64,93.24v3.68h-1.01v-3.68h-3.55v-0.88h3.55v-3.34h1.01v3.34h3.53v0.88H713.64z"/>
						<path class="st4" d="M719.54,96.92v-0.45c1.87-0.11,1.97-0.19,1.97-1.4V88.9c0-0.82-0.12-0.85-0.86-0.92l-0.82-0.08v-0.4
							c1.11-0.18,2.22-0.43,3.08-0.79v8.35c0,1.22,0.1,1.29,1.98,1.4v0.45H719.54z"/>
					</g>
				</g>
			</g>
			<line class="st4" x1="683.27" y1="66.79" x2="723.48" y2="66.79"/>
		</g>
	</g>
</g>
<g id="NOR_Based" class="st1">
	<g class="st2">
		<path class="st3" d="M493.8,20.39c21.05,2.65,54.07,9.46,89.8,28.89c41.71,22.69,67.61,51.97,81.15,69.8
			c-15.62,18.24-41.97,44.55-81.15,66.34c-35.01,19.47-67.39,28.17-89.8,32.36c4.91-3.7,49.44-38.47,49.26-99.07
			C542.88,58.57,498.8,24.15,493.8,20.39z"/>
		<circle class="st3" cx="676.28" cy="119.35" r="8.78"/>
		<line class="st3" x1="791.16" y1="119.36" x2="685.07" y2="119.36"/>
	</g>
	<g class="st2">
		<path class="st3" d="M493.8,346.85c21.05,2.65,54.07,9.46,89.8,28.89c41.71,22.69,67.61,51.97,81.15,69.8
			c-15.62,18.24-41.97,44.55-81.15,66.34c-35.01,19.47-67.39,28.17-89.8,32.36c4.91-3.7,49.44-38.47,49.26-99.07
			C542.88,385.04,498.8,350.62,493.8,346.85z"/>
		<circle class="st3" cx="676.28" cy="445.82" r="8.78"/>
		<line class="st3" x1="791.16" y1="445.82" x2="685.07" y2="445.82"/>
	</g>
	<line class="st5" x1="261.95" y1="46.84" x2="518.26" y2="45.67"/>
	<line class="st5" x1="263.98" y1="518.73" x2="520.29" y2="517.57"/>
	<polyline class="st5" points="738.11,119.09 738.11,217.78 316.68,301.57 316.68,363.73 511.51,363.73 	"/>
	<polyline class="st5" points="738.11,445.55 738.11,344.81 316.68,265.76 316.68,193.46 517.52,193.46 	"/>
	<text transform="matrix(1 0 0 1 262.8302 35.3513)" class="st6 st7 st8">R</text>
	<text transform="matrix(1 0 0 1 772.2019 106.9377)" class="st6 st7 st8">Q</text>
	<text transform="matrix(1 0 0 1 772.2031 426.1681)" class="st6 st7 st8">Q</text>
	<text transform="matrix(1 0 0 1 266.3831 507.5828)" class="st6 st7 st8">S</text>
	<line class="st9" x1="764.23" y1="399.13" x2="801.39" y2="399.13"/>
</g>
<g id="Nand_Clocked" class="st1">
	<g class="st2">
		<path class="st4" d="M548.23,177.97v-76.36h83.38c21.09,0,38.18,17.09,38.18,38.18c0,21.09-17.09,38.18-38.18,38.18H548.23z"/>
		<circle class="st4" cx="679.08" cy="139.79" r="9.29"/>
	</g>
	<g class="st2">
		<path class="st4" d="M319.55,151.89V75.53h83.38c21.09,0,38.18,17.09,38.18,38.18c0,21.09-17.09,38.18-38.18,38.18H319.55z"/>
		<circle class="st4" cx="450.4" cy="113.71" r="9.29"/>
	</g>
	<g class="st2">
		<path class="st4" d="M321.39,392.42v-76.36h83.38c21.09,0,38.18,17.09,38.18,38.18c0,21.09-17.09,38.18-38.18,38.18H321.39z"/>
		<circle class="st4" cx="452.24" cy="354.24" r="9.29"/>
	</g>
	<g class="st2">
		<path class="st4" d="M549,366.1v-76.36h83.38c21.09,0,38.18,17.09,38.18,38.18c0,21.09-17.09,38.18-38.18,38.18H549z"/>
		<circle class="st4" cx="679.85" cy="327.92" r="9.29"/>
	</g>
	<path class="st10" d="M688.37,139.79"/>
	<path class="st10" d="M715.94,194.23"/>
	<line class="st10" x1="688.37" y1="139.79" x2="776.32" y2="139.79"/>
	<line class="st10" x1="125.23" y1="87.39" x2="319.55" y2="87.39"/>
	<line class="st10" x1="127.55" y1="380.81" x2="321.87" y2="380.81"/>
	<line class="st10" x1="459.21" y1="113.71" x2="547.16" y2="113.71"/>
	<line class="st10" x1="460.36" y1="353.39" x2="548.31" y2="353.39"/>
	<line class="st10" x1="690.69" y1="327.92" x2="778.65" y2="327.92"/>
	<polyline class="st10" points="318.29,130.5 253.74,130.5 253.74,341.32 321.39,341.32 	"/>
	<polyline class="st10" points="732.19,139.79 732.19,207.39 486,262.35 486,304.16 547.16,304.16 	"/>
	<polyline class="st10" points="732.19,325.06 732.19,262.35 486,207.39 486,161.71 547.16,161.71 	"/>
	<line class="st10" x1="253.74" y1="232.94" x2="127.55" y2="232.94"/>
	<text transform="matrix(1 0 0 1 120.3105 226.4878)" class="st11 st7 st12">Clock</text>
	<text transform="matrix(1 0 0 1 114.3457 80.21)" class="st11 st7 st12">S</text>
	<text transform="matrix(0.7153 0 0 1 775.0098 128.6606)" class="st11 st7 st12">Q</text>
	<text transform="matrix(0.7153 0 0 1 775.0316 320.7101)" class="st11 st7 st12">Q</text>
	<text transform="matrix(1 0 0 1 127.5484 374.093)" class="st11 st7 st12">R</text>
	<path class="st11" d="M766.26,304.16"/>
	<line class="st13" x1="772.45" y1="304.16" x2="785.61" y2="304.16"/>
	<g id="Layer_5" class="st2">
	</g>
</g>
<g id="NOR_Clocked" class="st1">
	<g class="st2">
		<path class="st3" d="M572.22,47.15c17.44,2.2,44.8,7.84,74.41,23.94c34.56,18.8,56.02,43.06,67.23,57.84
			c-12.94,15.11-34.77,36.91-67.23,54.97c-29.01,16.13-55.83,23.34-74.41,26.81c4.07-3.06,40.97-31.87,40.82-82.08
			C612.88,78.79,576.36,50.28,572.22,47.15z"/>
		<circle class="st3" cx="723.41" cy="129.15" r="7.28"/>
		<line class="st3" x1="818.59" y1="129.15" x2="730.69" y2="129.15"/>
	</g>
	<g class="st2">
		<path class="st3" d="M572.22,317.64c17.44,2.2,44.8,7.84,74.41,23.94c34.56,18.8,56.02,43.06,67.23,57.84
			c-12.94,15.11-34.77,36.91-67.23,54.97c-29.01,16.13-55.83,23.34-74.41,26.81c4.07-3.06,40.97-31.87,40.82-82.08
			C612.88,349.28,576.36,320.76,572.22,317.64z"/>
		<circle class="st3" cx="723.41" cy="399.64" r="7.28"/>
		<line class="st3" x1="818.59" y1="399.64" x2="730.69" y2="399.64"/>
	</g>
	<line class="st5" x1="380.12" y1="69.07" x2="592.48" y2="68.1"/>
	<line class="st5" x1="14.94" y1="29.51" x2="227.3" y2="28.55"/>
	<line class="st5" x1="16.86" y1="491.01" x2="229.23" y2="490.05"/>
	<line class="st5" x1="381.8" y1="460.05" x2="594.17" y2="459.08"/>
	<polyline class="st5" points="774.64,128.93 774.64,210.7 425.46,280.12 425.46,331.63 586.89,331.63 	"/>
	<polyline class="st5" points="774.64,399.42 774.64,315.95 425.46,250.45 425.46,190.55 591.87,190.55 	"/>
	<text transform="matrix(1 0 0 1 31.2998 61.835)" class="st6 st7 st14">R</text>
	<text transform="matrix(1 0 0 1 802.8828 118.8652)" class="st6 st7 st14">Q</text>
	<text transform="matrix(1 0 0 1 802.8838 383.3584)" class="st6 st7 st14">Q</text>
	<text transform="matrix(1 0 0 1 33.3145 476.7168)" class="st6 st7 st14">S</text>
	<line class="st9" x1="796.28" y1="360.96" x2="827.06" y2="360.96"/>
	<path class="st10" d="M228.22,116.81V22.02h103.51c26.17,0,47.39,21.22,47.39,47.39c0,26.17-21.22,47.39-47.39,47.39H228.22z"/>
	<path class="st10" d="M231.02,507.84v-94.79h103.51c26.17,0,47.39,21.22,47.39,47.39c0,26.17-21.22,47.39-47.39,47.39H231.02z"/>
	<polyline class="st10" points="228.22,88.74 155.01,88.74 155.01,438.55 228.22,438.55 	"/>
	<line class="st5" x1="44" y1="254.16" x2="155.96" y2="253.65"/>
	<text transform="matrix(1 0 0 1 34.4287 241.1045)" class="st6 st7 st15">Clock</text>
</g>
<g id="JK_Flip_Flop">
	<g>
		<path class="st3" d="M541.91,111.34c14.89,1.8,38.27,6.44,63.55,19.67c29.52,15.44,47.85,35.37,57.43,47.51
			c-11.05,12.41-29.7,30.32-57.43,45.16c-24.78,13.25-47.69,19.18-63.55,22.02c3.47-2.52,34.99-26.18,34.86-67.43
			C576.65,137.33,545.45,113.9,541.91,111.34z"/>
		<ellipse class="st3" cx="671.06" cy="178.7" rx="6.22" ry="5.98"/>
		<line class="st3" x1="752.36" y1="178.7" x2="677.27" y2="178.7"/>
	</g>
	<g>
		<path class="st3" d="M541.91,333.55c14.89,1.8,38.27,6.44,63.55,19.67c29.52,15.44,47.85,35.37,57.43,47.51
			c-11.05,12.41-29.7,30.32-57.43,45.16c-24.78,13.25-47.69,19.18-63.55,22.02c3.47-2.52,34.99-26.18,34.86-67.43
			C576.65,359.54,545.45,336.11,541.91,333.55z"/>
		<ellipse class="st3" cx="671.06" cy="400.91" rx="6.22" ry="5.98"/>
		<line class="st3" x1="752.36" y1="400.91" x2="677.27" y2="400.91"/>
	</g>
	<line class="st3" x1="377.97" y1="154.33" x2="572.69" y2="153.48"/>
	<line class="st3" x1="69.15" y1="148.7" x2="250.54" y2="147.91"/>
	<line class="st3" x1="379.21" y1="436.58" x2="568.55" y2="435.75"/>
	<polyline class="st3" points="714.81,178.52 714.81,245.7 416.56,302.73 416.56,345.04 554.45,345.04 	"/>
	<polyline class="st3" points="714.81,400.73 714.81,332.16 416.56,278.35 416.56,229.14 558.7,229.14 	"/>
	<text transform="matrix(1.0397 0 0 1 79.8163 143.2766)" class="st16 st7 st17">K</text>
	<text transform="matrix(1.0397 0 0 1 738.9377 170.251)" class="st16 st7 st17">Q</text>
	<text transform="matrix(1.0397 0 0 1 738.9387 387.5337)" class="st16 st7 st17">Q</text>
	<text transform="matrix(1.0397 0 0 1 73 436.1831)" class="st16 st7 st17">J</text>
	<line class="st18" x1="733.29" y1="369.13" x2="759.59" y2="369.13"/>
	<path class="st4" d="M250.48,194.26V116.4h88.41c22.36,0,40.48,17.43,40.48,38.93c0,21.5-18.12,38.93-40.48,38.93H250.48z"/>
	<path class="st4" d="M250.48,475.12v-77.87h88.41c22.36,0,40.48,17.43,40.48,38.93c0,21.5-18.12,38.93-40.48,38.93H250.48z"/>
	<polyline class="st4" points="250.48,170.25 187.95,170.25 187.95,420.58 250.48,420.58 	"/>
	<line class="st3" x1="90.74" y1="281.4" x2="186.37" y2="280.98"/>
	<text transform="matrix(1.0397 0 0 1 82.5598 270.6714)" class="st16 st7 st19">Clock</text>
	<line class="st3" x1="67.42" y1="442.6" x2="248.81" y2="441.81"/>
	<polyline class="st4" points="250.48,133.5 199.97,133.5 199.97,70.01 714.81,70.01 714.81,187.18 	"/>
	<polyline class="st4" points="250.48,454.59 199.97,454.59 199.97,518.08 714.81,518.08 714.81,400.91 	"/>
</g>
</svg>
