<?xml version="1.0" encoding="utf-8"?>
<!-- Generator: Adobe Illustrator 25.2.0, SVG Export Plug-In . SVG Version: 6.00 Build 0)  -->
<svg version="1.1" xmlns="http://www.w3.org/2000/svg" xmlns:xlink="http://www.w3.org/1999/xlink" x="0px" y="0px"
	 viewBox="0 0 841.89 595.28" style="enable-background:new 0 0 841.89 595.28;" xml:space="preserve">
<style type="text/css">
	.st0{display:none;}
	.st1{display:inline;fill:#1C75BC;stroke:#000000;stroke-miterlimit:10;}
	.st2{display:inline;}
	.st3{fill:none;stroke:#F1F2F2;stroke-miterlimit:10;}
	.st4{display:inline;fill:none;stroke:#F1F2F2;stroke-miterlimit:10;}
	.st5{fill:none;stroke:#FFFFFF;stroke-miterlimit:10;}
	.st6{fill:none;stroke:#F1F2F2;stroke-width:2;stroke-miterlimit:10;}
	.st7{fill:#F1F2F2;stroke:#F1F2F2;stroke-miterlimit:10;}
	.st8{font-family:'MyriadPro-Regular';}
	.st9{font-size:32px;}
	.st10{fill:#F1F2F2;stroke:#F1F2F2;stroke-width:2;stroke-miterlimit:10;}
	.st11{fill:none;stroke:#FFFFFF;stroke-width:2;stroke-miterlimit:10;}
	.st12{display:inline;fill:none;stroke:#FFFFFF;stroke-width:2;stroke-miterlimit:10;}
	.st13{display:inline;fill:#FFFFFF;}
	.st14{font-size:14px;}
	.st15{display:inline;fill:#FFFFFF;stroke:#FFFFFF;stroke-width:2;stroke-miterlimit:10;}
	.st16{display:inline;fill:none;stroke:#F1F2F2;stroke-width:2;stroke-miterlimit:10;}
	.st17{display:inline;fill:#F1F2F2;stroke:#F1F2F2;stroke-miterlimit:10;}
	.st18{font-size:21.359px;}
	.st19{display:inline;fill:#F1F2F2;stroke:#F1F2F2;stroke-width:2;stroke-miterlimit:10;}
	.st20{font-size:17px;}
</style>
<g id="Layer_1" class="st0">
	<rect x="-5.62" y="-4.51" class="st1" width="853.38" height="605.41"/>
</g>
<g id="Table" class="st0">
	<g class="st2">
		<g>
			<g>
				<rect x="84.92" y="51.57" class="st3" width="76.35" height="22.3"/>
				<rect x="161.27" y="51.57" class="st3" width="76.35" height="22.3"/>
				<rect x="237.62" y="51.57" class="st3" width="76.35" height="22.3"/>
				<rect x="313.97" y="51.57" class="st3" width="76.35" height="22.3"/>
				<rect x="390.32" y="51.57" class="st3" width="76.35" height="22.3"/>
			</g>
			<g>
				<rect x="84.92" y="73.86" class="st3" width="76.35" height="22.3"/>
				<rect x="161.27" y="73.86" class="st3" width="76.35" height="22.3"/>
				<rect x="237.62" y="73.86" class="st3" width="76.35" height="22.3"/>
				<rect x="313.97" y="73.86" class="st3" width="76.35" height="22.3"/>
				<rect x="390.32" y="73.86" class="st3" width="76.35" height="22.3"/>
			</g>
		</g>
		<g>
			<g>
				<rect x="84.92" y="95.49" class="st3" width="76.35" height="22.3"/>
				<rect x="161.27" y="95.49" class="st3" width="76.35" height="22.3"/>
				<rect x="237.62" y="95.49" class="st3" width="76.35" height="22.3"/>
				<rect x="313.97" y="95.49" class="st3" width="76.35" height="22.3"/>
				<rect x="390.32" y="95.49" class="st3" width="76.35" height="22.3"/>
			</g>
			<g>
				<rect x="84.92" y="117.78" class="st3" width="76.35" height="22.3"/>
				<rect x="161.27" y="117.78" class="st3" width="76.35" height="22.3"/>
				<rect x="237.62" y="117.78" class="st3" width="76.35" height="22.3"/>
				<rect x="313.97" y="117.78" class="st3" width="76.35" height="22.3"/>
				<rect x="390.32" y="117.78" class="st3" width="76.35" height="22.3"/>
			</g>
		</g>
	</g>
	<g class="st2">
		<g>
			<rect x="84.92" y="140.08" class="st3" width="76.35" height="22.3"/>
			<rect x="161.27" y="140.08" class="st3" width="76.35" height="22.3"/>
			<rect x="237.62" y="140.08" class="st3" width="76.35" height="22.3"/>
			<rect x="313.97" y="140.08" class="st3" width="76.35" height="22.3"/>
			<rect x="390.32" y="140.08" class="st3" width="76.35" height="22.3"/>
		</g>
		<g>
			<rect x="84.92" y="162.38" class="st3" width="76.35" height="22.3"/>
			<rect x="161.27" y="162.38" class="st3" width="76.35" height="22.3"/>
			<rect x="237.62" y="162.38" class="st3" width="76.35" height="22.3"/>
			<rect x="313.97" y="162.38" class="st3" width="76.35" height="22.3"/>
			<rect x="390.32" y="162.38" class="st3" width="76.35" height="22.3"/>
		</g>
	</g>
	<g class="st2">
		<rect x="84.92" y="184" class="st3" width="76.35" height="22.3"/>
		<rect x="161.27" y="184" class="st3" width="76.35" height="22.3"/>
		<rect x="237.62" y="184" class="st3" width="76.35" height="22.3"/>
		<rect x="313.97" y="184" class="st3" width="76.35" height="22.3"/>
		<rect x="390.32" y="184" class="st3" width="76.35" height="22.3"/>
	</g>
	<rect x="84.92" y="206.3" class="st4" width="76.35" height="22.3"/>
	<rect x="161.27" y="206.3" class="st4" width="76.35" height="22.3"/>
	<rect x="237.62" y="206.3" class="st4" width="76.35" height="22.3"/>
	<rect x="313.97" y="206.3" class="st4" width="76.35" height="22.3"/>
	<rect x="390.32" y="206.3" class="st4" width="76.35" height="22.3"/>
	<g class="st2">
		<rect x="84.92" y="228.59" class="st3" width="76.35" height="22.3"/>
		<rect x="161.27" y="228.59" class="st3" width="76.35" height="22.3"/>
		<rect x="237.62" y="228.59" class="st3" width="76.35" height="22.3"/>
		<rect x="313.97" y="228.59" class="st3" width="76.35" height="22.3"/>
		<rect x="390.32" y="228.59" class="st3" width="76.35" height="22.3"/>
	</g>
	<g class="st2">
		<g>
			<g>
				<path class="st5" d="M114.86,56.82c2.05,0,3.89,1.57,3.89,3.96c0,2.58-1.8,4.19-4.01,4.19c-2.18,0-3.93-1.69-3.93-4.01
					C110.81,58.81,112.33,56.82,114.86,56.82z M114.62,57.26c-1.34,0-2.57,1.13-2.57,3.37c0,2.24,1.22,3.87,2.93,3.87
					c1.34,0,2.54-1.08,2.54-3.39C117.52,58.6,116.19,57.26,114.62,57.26z M115.43,64.18c1.26,0.96,2.6,1.82,3.71,2.23l-0.08,0.29
					c-0.58,0-1.26-0.06-1.62-0.16c-0.83-0.23-2.24-1.26-3.21-1.94L115.43,64.18z"/>
			</g>
		</g>
		<g>
			<g>
				<path class="st5" d="M125.84,70.85c-0.2,0.11-0.4,0.16-0.52,0.16c-0.77,0-1.18-0.47-1.18-1.43v-3.49h-0.83l-0.05-0.14l0.32-0.35
					h0.55v-1.01c0.23-0.24,0.58-0.55,0.8-0.79l0.18,0.02c-0.02,0.5-0.04,1.2-0.04,1.78h1.37c0.11,0.12,0.07,0.38-0.07,0.49h-1.3
					v3.07c0,0.97,0.38,1.15,0.7,1.15c0.29,0,0.56-0.11,0.73-0.19l0.11,0.31L125.84,70.85z"/>
			</g>
		</g>
	</g>
	<g class="st2">
		<g>
			<path class="st5" d="M274.81,59.78c-0.13-0.79-0.33-1.57-1.04-1.57c-0.58,0-0.78,0.68-0.78,1.31c0,0.83,0.33,1.25,0.95,1.76
				c0.89,0.74,1.28,1.3,1.28,2.43c0,1.26-0.68,2.22-1.64,2.22c-0.45,0-0.83-0.2-1.14-0.4c-0.06-0.34-0.15-1.15-0.2-1.8l0.23-0.1
				c0.15,0.8,0.48,1.85,1.25,1.85c0.54,0,0.86-0.6,0.86-1.38c0-0.92-0.31-1.3-0.96-1.87c-0.78-0.68-1.22-1.26-1.22-2.37
				c0-1.07,0.55-2.07,1.53-2.07c0.42,0,0.83,0.18,0.98,0.23c0.03,0.43,0.06,0.91,0.12,1.69L274.81,59.78z"/>
		</g>
	</g>
	<g class="st2">
		<g>
			<path class="st5" d="M121.77,81.79c1.8,0,2.47,2.02,2.47,3.87c0,1.75-0.67,3.89-2.47,3.89c-1.83,0-2.51-1.98-2.51-3.87
				C119.26,83.92,119.95,81.79,121.77,81.79z M121.77,82.21c-1.12,0-1.39,1.76-1.39,3.44s0.34,3.48,1.39,3.48
				c1.08,0,1.37-1.79,1.37-3.47C123.14,83.97,122.84,82.21,121.77,82.21z"/>
		</g>
	</g>
	<g class="st2">
		<g>
			<path class="st5" d="M198.17,195.15c1.8,0,2.47,2.02,2.47,3.87c0,1.75-0.67,3.89-2.47,3.89c-1.83,0-2.51-1.98-2.51-3.87
				C195.66,197.28,196.35,195.15,198.17,195.15z M198.17,195.57c-1.12,0-1.39,1.76-1.39,3.44s0.34,3.48,1.39,3.48
				c1.08,0,1.37-1.79,1.37-3.47C199.54,197.33,199.24,195.57,198.17,195.57z"/>
		</g>
	</g>
	<g class="st2">
		<g>
			<path class="st5" d="M274.4,213.57c1.8,0,2.47,2.02,2.47,3.87c0,1.75-0.67,3.89-2.47,3.89c-1.83,0-2.51-1.98-2.51-3.87
				C271.89,215.71,272.58,213.57,274.4,213.57z M274.4,213.99c-1.12,0-1.39,1.76-1.39,3.44s0.34,3.48,1.39,3.48
				c1.08,0,1.37-1.79,1.37-3.47C275.77,215.76,275.47,213.99,274.4,213.99z"/>
		</g>
	</g>
	<g class="st2">
		<g>
			<path class="st5" d="M274.4,169.65c1.8,0,2.47,2.02,2.47,3.87c0,1.75-0.67,3.89-2.47,3.89c-1.83,0-2.51-1.98-2.51-3.87
				C271.89,171.79,272.58,169.65,274.4,169.65z M274.4,170.07c-1.12,0-1.39,1.76-1.39,3.44s0.34,3.48,1.39,3.48
				c1.08,0,1.37-1.79,1.37-3.47C275.77,171.84,275.47,170.07,274.4,170.07z"/>
		</g>
	</g>
	<g class="st2">
		<g>
			<path class="st5" d="M198.17,170.3c1.8,0,2.47,2.02,2.47,3.87c0,1.75-0.67,3.89-2.47,3.89c-1.83,0-2.51-1.98-2.51-3.87
				C195.66,172.44,196.35,170.3,198.17,170.3z M198.17,170.72c-1.12,0-1.39,1.76-1.39,3.44s0.34,3.48,1.39,3.48
				c1.08,0,1.37-1.79,1.37-3.47C199.54,172.49,199.24,170.72,198.17,170.72z"/>
		</g>
	</g>
	<g class="st2">
		<g>
			<path class="st5" d="M274.4,124.36c1.8,0,2.47,2.02,2.47,3.87c0,1.75-0.67,3.89-2.47,3.89c-1.83,0-2.51-1.98-2.51-3.87
				C271.89,126.49,272.58,124.36,274.4,124.36z M274.4,124.78c-1.12,0-1.39,1.76-1.39,3.44s0.34,3.48,1.39,3.48
				c1.08,0,1.37-1.79,1.37-3.47C275.77,126.54,275.47,124.78,274.4,124.78z"/>
		</g>
	</g>
	<g class="st2">
		<g>
			<path class="st5" d="M198.17,81.79c1.8,0,2.47,2.02,2.47,3.87c0,1.75-0.67,3.89-2.47,3.89c-1.83,0-2.51-1.98-2.51-3.87
				C195.66,83.92,196.35,81.79,198.17,81.79z M198.17,82.21c-1.12,0-1.39,1.76-1.39,3.44s0.34,3.48,1.39,3.48
				c1.08,0,1.37-1.79,1.37-3.47C199.54,83.97,199.24,82.21,198.17,82.21z"/>
		</g>
	</g>
	<g class="st2">
		<g>
			<path class="st5" d="M274.4,81.79c1.8,0,2.47,2.02,2.47,3.87c0,1.75-0.67,3.89-2.47,3.89c-1.83,0-2.51-1.98-2.51-3.87
				C271.89,83.92,272.58,81.79,274.4,81.79z M274.4,82.21c-1.12,0-1.39,1.76-1.39,3.44s0.34,3.48,1.39,3.48
				c1.08,0,1.37-1.79,1.37-3.47C275.77,83.97,275.47,82.21,274.4,82.21z"/>
		</g>
	</g>
	<g class="st2">
		<g>
			<path class="st5" d="M121.77,102.77c1.8,0,2.47,2.02,2.47,3.87c0,1.75-0.67,3.89-2.47,3.89c-1.83,0-2.51-1.98-2.51-3.87
				C119.26,104.91,119.95,102.77,121.77,102.77z M121.77,103.19c-1.12,0-1.39,1.76-1.39,3.44s0.34,3.48,1.39,3.48
				c1.08,0,1.37-1.79,1.37-3.47C123.14,104.96,122.84,103.19,121.77,103.19z"/>
		</g>
	</g>
	<g class="st2">
		<g>
			<path class="st5" d="M198.17,102.77c1.8,0,2.47,2.02,2.47,3.87c0,1.75-0.67,3.89-2.47,3.89c-1.83,0-2.51-1.98-2.51-3.87
				C195.66,104.91,196.35,102.77,198.17,102.77z M198.17,103.19c-1.12,0-1.39,1.76-1.39,3.44s0.34,3.48,1.39,3.48
				c1.08,0,1.37-1.79,1.37-3.47C199.54,104.96,199.24,103.19,198.17,103.19z"/>
		</g>
	</g>
	<g class="st2">
		<g>
			<path class="st5" d="M121.77,124.36c1.8,0,2.47,2.02,2.47,3.87c0,1.75-0.67,3.89-2.47,3.89c-1.83,0-2.51-1.98-2.51-3.87
				C119.26,126.49,119.95,124.36,121.77,124.36z M121.77,124.78c-1.12,0-1.39,1.76-1.39,3.44s0.34,3.48,1.39,3.48
				c1.08,0,1.37-1.79,1.37-3.47C123.14,126.54,122.84,124.78,121.77,124.78z"/>
		</g>
	</g>
	<g class="st2">
		<g>
			<path class="st5" d="M121.77,146.65c1.8,0,2.47,2.02,2.47,3.87c0,1.75-0.67,3.89-2.47,3.89c-1.83,0-2.51-1.98-2.51-3.87
				C119.26,148.79,119.95,146.65,121.77,146.65z M121.77,147.07c-1.12,0-1.39,1.76-1.39,3.44s0.34,3.48,1.39,3.48
				c1.08,0,1.37-1.79,1.37-3.47C123.14,148.84,122.84,147.07,121.77,147.07z"/>
		</g>
	</g>
	<g class="st2">
		<g>
			<path class="st5" d="M119.93,243.12v-0.34c1.33-0.08,1.4-0.14,1.4-1.04v-4.61c0-0.61-0.08-0.64-0.61-0.68l-0.59-0.06v-0.3
				c0.79-0.13,1.58-0.32,2.19-0.59v6.24c0,0.91,0.07,0.96,1.42,1.04v0.34H119.93z"/>
		</g>
	</g>
	<g class="st2">
		<g>
			<path class="st5" d="M119.93,222.17v-0.34c1.33-0.08,1.4-0.14,1.4-1.04v-4.61c0-0.61-0.08-0.64-0.61-0.68l-0.59-0.06v-0.3
				c0.79-0.13,1.58-0.32,2.19-0.59v6.24c0,0.91,0.07,0.96,1.42,1.04v0.34H119.93z"/>
		</g>
	</g>
	<g class="st2">
		<g>
			<path class="st5" d="M196.33,244.5v-0.34c1.33-0.08,1.4-0.14,1.4-1.04v-4.61c0-0.61-0.08-0.64-0.61-0.68l-0.59-0.06v-0.3
				c0.79-0.13,1.58-0.32,2.19-0.59v6.24c0,0.91,0.07,0.96,1.42,1.04v0.34H196.33z"/>
		</g>
	</g>
	<g class="st2">
		<g>
			<path class="st5" d="M272.57,242.86v-0.34c1.33-0.08,1.4-0.14,1.4-1.04v-4.61c0-0.61-0.08-0.64-0.61-0.68l-0.59-0.06v-0.3
				c0.79-0.13,1.58-0.32,2.19-0.59v6.24c0,0.91,0.07,0.96,1.42,1.04v0.34H272.57z"/>
		</g>
	</g>
	<g class="st2">
		<g>
			<path class="st5" d="M119.93,200.24v-0.34c1.33-0.08,1.4-0.14,1.4-1.04v-4.61c0-0.61-0.08-0.64-0.61-0.68l-0.59-0.06v-0.3
				c0.79-0.13,1.58-0.32,2.19-0.59v6.24c0,0.91,0.07,0.96,1.42,1.04v0.34H119.93z"/>
		</g>
	</g>
	<g class="st2">
		<g>
			<path class="st5" d="M196.33,222.17v-0.34c1.33-0.08,1.4-0.14,1.4-1.04v-4.61c0-0.61-0.08-0.64-0.61-0.68l-0.59-0.06v-0.3
				c0.79-0.13,1.58-0.32,2.19-0.59v6.24c0,0.91,0.07,0.96,1.42,1.04v0.34H196.33z"/>
		</g>
	</g>
	<g class="st2">
		<g>
			<path class="st5" d="M272.57,200.24v-0.34c1.33-0.08,1.4-0.14,1.4-1.04v-4.61c0-0.61-0.08-0.64-0.61-0.68l-0.59-0.06v-0.3
				c0.79-0.13,1.58-0.32,2.19-0.59v6.24c0,0.91,0.07,0.96,1.42,1.04v0.34H272.57z"/>
		</g>
	</g>
	<g class="st2">
		<g>
			<path class="st5" d="M119.93,177.24v-0.34c1.33-0.08,1.4-0.14,1.4-1.04v-4.61c0-0.61-0.08-0.64-0.61-0.68l-0.59-0.06v-0.3
				c0.79-0.13,1.58-0.32,2.19-0.59v6.24c0,0.91,0.07,0.96,1.42,1.04v0.34H119.93z"/>
		</g>
	</g>
	<g class="st2">
		<g>
			<path class="st5" d="M196.33,154.27v-0.34c1.33-0.08,1.4-0.14,1.4-1.04v-4.61c0-0.61-0.08-0.64-0.61-0.68l-0.59-0.06v-0.3
				c0.79-0.13,1.58-0.32,2.19-0.59v6.24c0,0.91,0.07,0.96,1.42,1.04v0.34H196.33z"/>
		</g>
	</g>
	<g class="st2">
		<g>
			<path class="st5" d="M272.57,155.79v-0.34c1.33-0.08,1.4-0.14,1.4-1.04v-4.61c0-0.61-0.08-0.64-0.61-0.68l-0.59-0.06v-0.3
				c0.79-0.13,1.58-0.32,2.19-0.59v6.24c0,0.91,0.07,0.96,1.42,1.04v0.34H272.57z"/>
		</g>
	</g>
	<g class="st2">
		<g>
			<path class="st5" d="M196.33,132.12v-0.34c1.33-0.08,1.4-0.14,1.4-1.04v-4.61c0-0.61-0.08-0.64-0.61-0.68l-0.59-0.06v-0.3
				c0.79-0.13,1.58-0.32,2.19-0.59v6.24c0,0.91,0.07,0.96,1.42,1.04v0.34H196.33z"/>
		</g>
	</g>
	<g class="st2">
		<g>
			<path class="st5" d="M272.57,110.39v-0.34c1.33-0.08,1.4-0.14,1.4-1.04v-4.61c0-0.61-0.08-0.64-0.61-0.68l-0.59-0.06v-0.3
				c0.79-0.13,1.58-0.32,2.19-0.59v6.24c0,0.91,0.07,0.96,1.42,1.04v0.34H272.57z"/>
		</g>
	</g>
	<g class="st2">
		<g>
			<path class="st5" d="M203.31,65.8c-0.16,0-0.29-0.01-0.44-0.02c-0.88-0.06-1.34-0.29-1.87-1.03c-0.44-0.61-0.88-1.37-1.26-1.98
				c-0.24-0.38-0.4-0.46-1.01-0.46h-0.42v1.88c0,1.02,0.13,1.08,1.09,1.17v0.34h-3.2v-0.34c1-0.11,1.08-0.16,1.08-1.17v-4.79
				c0-1.02-0.13-1.05-1.08-1.16v-0.34h3.06c0.88,0,1.46,0.11,1.92,0.41c0.49,0.31,0.82,0.85,0.82,1.58c0,1.03-0.66,1.68-1.55,2.06
				c0.22,0.37,0.73,1.18,1.09,1.71c0.44,0.64,0.67,0.94,0.95,1.24c0.32,0.35,0.6,0.48,0.88,0.55L203.31,65.8z M198.88,61.9
				c0.62,0,1.02-0.1,1.32-0.35c0.47-0.35,0.66-0.83,0.66-1.48c0-1.28-0.85-1.75-1.77-1.75c-0.35,0-0.55,0.05-0.64,0.12
				c-0.11,0.08-0.14,0.2-0.14,0.52v2.94H198.88z"/>
		</g>
	</g>
	<g class="st2">
		<g>
			<g>
				<path class="st5" d="M342.82,58.37c1.6,0,3.03,1.22,3.03,3.08c0,2.01-1.4,3.26-3.12,3.26c-1.7,0-3.06-1.32-3.06-3.12
					C339.67,59.92,340.85,58.37,342.82,58.37z M342.64,58.71c-1.05,0-2,0.88-2,2.62c0,1.75,0.95,3.02,2.28,3.02
					c1.05,0,1.98-0.84,1.98-2.64C344.9,59.75,343.86,58.71,342.64,58.71z M343.26,64.1c0.98,0.75,2.03,1.42,2.89,1.74l-0.06,0.22
					c-0.45,0-0.98-0.05-1.26-0.12c-0.64-0.18-1.75-0.98-2.5-1.51L343.26,64.1z"/>
			</g>
		</g>
		<g>
			<g>
				<path class="st5" d="M351.37,66.94c-0.16,0.06-0.31,0.08-0.4,0.08c-0.6,0-0.92-0.25-0.92-0.77v-1.89h-0.64l-0.04-0.08l0.25-0.19
					h0.43v-0.54c0.18-0.13,0.45-0.3,0.63-0.43l0.14,0.01c-0.02,0.27-0.03,0.65-0.03,0.96h1.06c0.08,0.06,0.06,0.21-0.06,0.27h-1.01
					v1.66c0,0.53,0.3,0.62,0.54,0.62c0.22,0,0.44-0.06,0.57-0.1l0.08,0.17L351.37,66.94z"/>
				<path class="st5" d="M355.07,65.46v1.49h-0.56v-1.49h-1.97V65.1h1.97v-1.35h0.56v1.35h1.96v0.36H355.07z"/>
				<path class="st5" d="M358.35,66.95v-0.18c1.04-0.04,1.09-0.08,1.09-0.56v-2.49c0-0.33-0.07-0.34-0.48-0.37l-0.46-0.03v-0.16
					c0.62-0.07,1.23-0.18,1.71-0.32v3.37c0,0.49,0.06,0.52,1.1,0.56v0.18H358.35z"/>
			</g>
		</g>
	</g>
	<g class="st2">
		<g>
			<g>
				<g>
					<path class="st5" d="M421.95,61.3c1.6,0,3.03,1.22,3.03,3.08c0,2.01-1.4,3.26-3.12,3.26c-1.7,0-3.06-1.32-3.06-3.12
						C418.79,62.85,419.98,61.3,421.95,61.3z M421.76,61.64c-1.05,0-2,0.88-2,2.62c0,1.75,0.95,3.02,2.28,3.02
						c1.05,0,1.98-0.84,1.98-2.64C424.02,62.68,422.99,61.64,421.76,61.64z M422.39,67.03c0.98,0.75,2.03,1.42,2.89,1.74l-0.07,0.22
						c-0.45,0-0.98-0.05-1.26-0.12c-0.64-0.18-1.75-0.98-2.5-1.51L422.39,67.03z"/>
				</g>
			</g>
			<g>
				<g>
					<path class="st5" d="M430.5,69.87c-0.16,0.06-0.31,0.08-0.4,0.08c-0.6,0-0.92-0.25-0.92-0.77V67.3h-0.64l-0.04-0.08l0.25-0.19
						h0.43v-0.54c0.18-0.13,0.45-0.3,0.63-0.43l0.14,0.01c-0.02,0.27-0.03,0.65-0.03,0.96h1.06c0.08,0.06,0.06,0.21-0.06,0.27h-1.01
						v1.66c0,0.53,0.3,0.62,0.54,0.62c0.22,0,0.44-0.06,0.57-0.1l0.08,0.17L430.5,69.87z"/>
					<path class="st5" d="M434.2,68.39v1.49h-0.56v-1.49h-1.97v-0.36h1.97v-1.35h0.56v1.35h1.96v0.36H434.2z"/>
					<path class="st5" d="M437.48,69.88V69.7c1.04-0.04,1.09-0.08,1.09-0.56v-2.49c0-0.33-0.07-0.34-0.48-0.37l-0.46-0.03v-0.16
						c0.62-0.07,1.23-0.18,1.71-0.32v3.37c0,0.49,0.06,0.52,1.1,0.56v0.18H437.48z"/>
				</g>
			</g>
		</g>
		<line class="st5" x1="417.33" y1="57.72" x2="439.67" y2="57.72"/>
	</g>
</g>
<g id="NOR_Based">
	<g>
		<path class="st6" d="M493.8,20.39c21.05,2.65,54.07,9.46,89.8,28.89c41.71,22.69,67.61,51.97,81.15,69.8
			c-15.62,18.24-41.97,44.55-81.15,66.34c-35.01,19.47-67.39,28.17-89.8,32.36c4.91-3.7,49.44-38.47,49.26-99.07
			C542.88,58.57,498.8,24.15,493.8,20.39z"/>
		<circle class="st6" cx="676.28" cy="119.35" r="8.78"/>
		<line class="st6" x1="791.16" y1="119.36" x2="685.07" y2="119.36"/>
	</g>
	<g>
		<path class="st6" d="M493.8,346.85c21.05,2.65,54.07,9.46,89.8,28.89c41.71,22.69,67.61,51.97,81.15,69.8
			c-15.62,18.24-41.97,44.55-81.15,66.34c-35.01,19.47-67.39,28.17-89.8,32.36c4.91-3.7,49.44-38.47,49.26-99.07
			C542.88,385.04,498.8,350.62,493.8,346.85z"/>
		<circle class="st6" cx="676.28" cy="445.82" r="8.78"/>
		<line class="st6" x1="791.16" y1="445.82" x2="685.07" y2="445.82"/>
	</g>
	<line class="st6" x1="261.95" y1="46.84" x2="518.26" y2="45.67"/>
	<line class="st6" x1="263.98" y1="518.73" x2="520.29" y2="517.57"/>
	<polyline class="st6" points="738.11,119.09 738.11,217.78 316.68,301.57 316.68,363.73 511.51,363.73 	"/>
	<polyline class="st6" points="738.11,445.55 738.11,344.81 316.68,265.76 316.68,193.46 517.52,193.46 	"/>
	<text transform="matrix(1 0 0 1 262.8302 35.3513)" class="st7 st8 st9">R</text>
	<text transform="matrix(1 0 0 1 772.2019 106.9377)" class="st7 st8 st9">Q</text>
	<text transform="matrix(1 0 0 1 772.2031 426.1681)" class="st7 st8 st9">Q</text>
	<text transform="matrix(1 0 0 1 266.3831 507.5828)" class="st7 st8 st9">S</text>
	<line class="st10" x1="764.23" y1="399.13" x2="801.39" y2="399.13"/>
</g>
<g id="Nand_Clocked" class="st0">
	<g class="st2">
		<path class="st11" d="M548.23,177.97v-76.36h83.38c21.09,0,38.18,17.09,38.18,38.18c0,21.09-17.09,38.18-38.18,38.18H548.23z"/>
		<circle class="st11" cx="679.08" cy="139.79" r="9.29"/>
	</g>
	<g class="st2">
		<path class="st11" d="M319.55,151.89V75.53h83.38c21.09,0,38.18,17.09,38.18,38.18c0,21.09-17.09,38.18-38.18,38.18H319.55z"/>
		<circle class="st11" cx="450.4" cy="113.71" r="9.29"/>
	</g>
	<g class="st2">
		<path class="st11" d="M321.39,392.42v-76.36h83.38c21.09,0,38.18,17.09,38.18,38.18c0,21.09-17.09,38.18-38.18,38.18H321.39z"/>
		<circle class="st11" cx="452.24" cy="354.24" r="9.29"/>
	</g>
	<g class="st2">
		<path class="st11" d="M549,366.1v-76.36h83.38c21.09,0,38.18,17.09,38.18,38.18c0,21.09-17.09,38.18-38.18,38.18H549z"/>
		<circle class="st11" cx="679.85" cy="327.92" r="9.29"/>
	</g>
	<path class="st12" d="M688.37,139.79"/>
	<path class="st12" d="M715.94,194.23"/>
	<line class="st12" x1="688.37" y1="139.79" x2="776.32" y2="139.79"/>
	<line class="st12" x1="125.23" y1="87.39" x2="319.55" y2="87.39"/>
	<line class="st12" x1="127.55" y1="380.81" x2="321.87" y2="380.81"/>
	<line class="st12" x1="459.21" y1="113.71" x2="547.16" y2="113.71"/>
	<line class="st12" x1="460.36" y1="353.39" x2="548.31" y2="353.39"/>
	<line class="st12" x1="690.69" y1="327.92" x2="778.65" y2="327.92"/>
	<polyline class="st12" points="318.29,130.5 253.74,130.5 253.74,341.32 321.39,341.32 	"/>
	<polyline class="st12" points="732.19,139.79 732.19,207.39 486,262.35 486,304.16 547.16,304.16 	"/>
	<polyline class="st12" points="732.19,325.06 732.19,262.35 486,207.39 486,161.71 547.16,161.71 	"/>
	<line class="st12" x1="253.74" y1="232.94" x2="127.55" y2="232.94"/>
	<text transform="matrix(1 0 0 1 120.3105 226.4878)" class="st13 st8 st14">Clock</text>
	<text transform="matrix(1 0 0 1 114.3457 80.21)" class="st13 st8 st14">S</text>
	<text transform="matrix(0.7153 0 0 1 775.0098 128.6606)" class="st13 st8 st14">Q</text>
	<text transform="matrix(0.7153 0 0 1 775.0316 320.7101)" class="st13 st8 st14">Q</text>
	<text transform="matrix(1 0 0 1 127.5484 374.093)" class="st13 st8 st14">R</text>
	<path class="st13" d="M766.26,304.16"/>
	<line class="st15" x1="772.45" y1="304.16" x2="785.61" y2="304.16"/>
	<g id="Layer_5" class="st2">
	</g>
</g>
<g id="NOR_Clocked" class="st0">
	<g class="st2">
		<path class="st6" d="M541.07,42.27c14.05,1.77,36.09,6.31,59.94,19.29c27.84,15.14,45.13,34.69,54.16,46.59
			c-10.43,12.17-28.01,29.74-54.16,44.28c-23.37,13-44.98,18.81-59.94,21.6c3.28-2.47,33-25.68,32.88-66.12
			C573.83,67.76,544.41,44.78,541.07,42.27z"/>
		<circle class="st6" cx="662.87" cy="108.33" r="5.86"/>
		<line class="st6" x1="739.55" y1="108.33" x2="668.74" y2="108.33"/>
	</g>
	<g class="st2">
		<path class="st6" d="M541.07,260.17c14.05,1.77,36.09,6.31,59.94,19.29c27.84,15.14,45.13,34.69,54.16,46.59
			c-10.43,12.17-28.01,29.74-54.16,44.28c-23.37,13-44.98,18.81-59.94,21.6c3.28-2.47,33-25.68,32.88-66.12
			C573.83,285.66,544.41,262.69,541.07,260.17z"/>
		<circle class="st6" cx="662.87" cy="326.23" r="5.86"/>
		<line class="st6" x1="739.55" y1="326.23" x2="668.74" y2="326.23"/>
	</g>
	<line class="st16" x1="386.32" y1="59.92" x2="557.4" y2="59.15"/>
	<line class="st16" x1="92.12" y1="28.06" x2="263.21" y2="27.28"/>
	<line class="st16" x1="93.68" y1="399.84" x2="264.76" y2="399.06"/>
	<line class="st16" x1="387.67" y1="374.9" x2="558.75" y2="374.12"/>
	<polyline class="st16" points="704.14,108.15 704.14,174.03 422.85,229.95 422.85,271.44 552.89,271.44 	"/>
	<polyline class="st16" points="704.14,326.05 704.14,258.81 422.85,206.05 422.85,157.79 556.9,157.79 	"/>
	<text transform="matrix(1 0 0 1 105.3083 54.0963)" class="st17 st8 st18">R</text>
	<text transform="matrix(1 0 0 1 726.8958 100.0388)" class="st17 st8 st18">Q</text>
	<text transform="matrix(1 0 0 1 726.8967 313.1155)" class="st17 st8 st18">Q</text>
	<text transform="matrix(1 0 0 1 106.9314 388.3243)" class="st17 st8 st18">S</text>
	<line class="st19" x1="721.57" y1="295.07" x2="746.38" y2="295.07"/>
	<path class="st12" d="M263.95,98.38V22.02h83.38c21.09,0,38.18,17.09,38.18,38.18c0,21.09-17.09,38.18-38.18,38.18H263.95z"/>
	<path class="st12" d="M266.21,413.4v-76.36h83.38c21.09,0,38.18,17.09,38.18,38.18c0,21.09-17.09,38.18-38.18,38.18H266.21z"/>
	<polyline class="st12" points="263.95,75.77 204.97,75.77 204.97,357.58 263.95,357.58 	"/>
	<line class="st16" x1="115.54" y1="209.03" x2="205.74" y2="208.62"/>
	<text transform="matrix(1 0 0 1 107.8284 198.5151)" class="st17 st8 st20">Clock</text>
</g>
</svg>
